<?xml version="1.0" encoding="utf-8"?>

<!DOCTYPE svg PUBLIC "-//W3C//DTD SVG 1.1//EN" "http://www.w3.org/Graphics/SVG/1.1/DTD/svg11.dtd">
<svg version="1.1" id="Layer_1" xmlns="http://www.w3.org/2000/svg" xmlns:xlink="http://www.w3.org/1999/xlink" x="0px" y="0px"
	 viewBox="232.5988 -14.3564 1595.2809 3473.1418" enable-background="new 232.5988 -14.3564 1595.2809 3473.1418"
	 xml:space="preserve">
<g>
	<path fill="#3D3532" stroke="#3D3532" stroke-width="0.5" d="M843.9,65.89c3.39,0.12,5.67-3.03,8.93-3.14
		c24.47,1.01,47.81,10.81,67.97,24.33c14.75,9.92,28.11,21.89,39.76,35.31c9.93,11.06,18.53,23.35,25.3,36.6
		c8.14,16.34,13.52,34.53,12.56,52.94c-0.82,7.13-0.94,14.64-4.6,21.04c-4.51,8.1-11.01,15.38-19.36,19.62
		c-21.1,13.79-43.02,26.28-64.55,39.37c-8.29,5.92-17.71,10.01-26.12,15.77c-8.89,5-17.2599,10.86-26.17,15.83
		c-14.15,11.28-32.02,16.63-49.68,19.13c-3.02-0.17-5.99,0.38-8.98,0.59c-5.31-0.72-10.66-0.74-15.9901-1.08
		c-5.27-1.08-10.6899-0.55-15.96-1.62c-8.75,0.05-17.4-1.66-26.15-1.29c-3.6,0.65-5.81,3.92-8.46,6.14
		c-17.95,16.05-35.54,32.48-53.77,48.21c-13.51,12.54-27.03,25.09-41.11,36.99c-16.51,15.46-33.59,30.29-50.18,45.65
		c-7.53,5.73-14,12.69-20.4,19.61c-3.33,3.53-5.5,7.94-8.48,11.75c-0.33,0.06-0.98,0.2-1.31,0.26c-2.34-2.62-4.36-5.5-6.54-8.24
		c-0.07-0.07-0.19-0.22-0.26-0.29c-3.14-3.64-7.23-6.4-11.78-7.95c-4.44-1.68-9.25-1.75-13.78-3.05c0.48-1.48-0.09-2.36-1.68-2.64
		c-1.92-2.11-3.7-4.33-5.31-6.68c-0.33-0.6-0.98-1.79-1.31-2.39c8.36-4.18,16.42-8.95,24.46-13.72c7.27-4.1,13.03-10.25,19.61-15.29
		c49.22-40.8,98.34-81.72,147.62-122.45c5.57-4.15,10.59-10.02,11.13-17.23c0.56-13.69,1.11-27.39,1.57-41.09
		c1.19-19.38,6.38-39.13,18.1-54.9c30.62-44.07,61.14-88.22,91.78-132.28c0.27-0.63,0.82-1.91,1.09-2.55
		c-0.74,0.06-2.23,0.19-2.97,0.25c1.7-0.68,3.61-1.04,4.83-2.57C836.77,71.47,840.55,68.92,843.9,65.89 M838.76,111.7
		c-22.09,26.63-43.68,53.67-65.53,80.49c-1.97,2.22-3.59,5.34-1.59,8.1c1.1,0.61,2.27,1.04,3.51,1.3c1.81-0.89,3.14-2.5,4.52-3.93
		c15.8-17.21,30.92-35.01,46.62-52.31c8.37-9.66,17.09-19.02,24.97-29.1c3.01-4.09-0.89-9.35-5.26-9.98
		C842.58,106.13,840.91,109.65,838.76,111.7 M882.78,124.66c-3.53,2.81-6.5,6.24-9.66,9.44c-7.49,8.15-15.46,15.86-22.87,24.08
		c-18.66,20.04-37.89,39.53-56.3,59.78c-1.67,1.65-2.33,4.66-0.31,6.32c1.21,1.47,3.18,1.27,4.89,1.28
		c6.23-5.05,11.65-10.98,17.48-16.48c14.3-14.41,29.1-28.31,43.52-42.61c10.23-10.1,20.84-19.83,30.78-30.24
		c3.73-3.27,3.55-10-0.85-12.61C887.24,123.08,884.56,123.02,882.78,124.66 M915.7,147.64c-13.94,11.31-26.7,23.98-39.95,36.06
		c-20.15,18.87-40.41,37.64-60.47,56.59c-1.7401,1.59-2.42,4.34-0.94,6.34c1.44,2.95,5.86,2.95,7.9,0.62
		c15.32-13.67,30.34-27.68,45.5-41.54c15.12-13.85,30.49-27.43,45.36-41.56c3.1-2.79,6.77-5.29,8.61-9.16
		C922.17,151.67,919.6,146.82,915.7,147.64 M935.34,179.48c-4.96,2.75-8.94,6.87-13.42,10.27c-8.38,7.38-16.99,14.49-25.15,22.12
		c-7.5,6.12-14.8,12.48-21.94,19.02c-11.42,9.19-22.09,19.24-33.27,28.72c-2.41,2.37-5.46,4.3-7.04,7.36
		c-0.65,3.98,4.3,6.24,7.33,4.2c5.62-3.71,10.47-8.44,15.9-12.41c20.37-16.29,40.53-32.88,61.02-49.04
		c7.67-6.69,16.24-12.38,23.35-19.7C946.74,185.83,941.04,177.24,935.34,179.48 M944.42,224.29c-15.67,11.25-31.02,22.94-46.4,34.59
		c-13.6,10.02-26.97,20.37-40.3,30.74c-3.3799,3.45,1.3101,8.08,5.22,7.09c10.36-6.95,20.62-14.07,30.94-21.08
		c19.36-13.96,39.6-26.63,58.72-40.92c2.05-1.4,3.82-3.27,4.66-5.65c0.56-3.18-2.22-5.84-4.7-7.33
		C949.51,220.29,946.7,222.54,944.42,224.29z"/>
	<path fill="#EBEBEB" stroke="#EBEBEB" stroke-width="0.5" d="M1146.84,272.8c20.41-6.59,41.66-11.13,63.1901-11.08
		c-0.0901,55.11-0.02,110.22-0.02,165.33c-0.1,16.22,0.24,32.44-0.2,48.65c-16.66,9.27-34.4901,16.64-53.1101,20.84
		c-11.72,2.29-24.1499,3.15-35.6599-0.62c-19.41-5.45-38.42-16.05-49.62-33.29c-2.51-3.72-4.3401-7.83-6.37-11.81
		c0.71,8.64,4.8999,16.43,9.01,23.89c-20.6001,7.89-41.8401,16.73-57.4001,32.94c-8.92,8.7-15.98,19.11-22.03,29.95
		c-2.62,4.3-1.85,9.54-2.44,14.34c-0.2,6.4-1.63,12.8-0.79,19.2c1.21-6.47,2.09-12.99,3.12-19.48c0.68-4.35,0.83-9,3.23-12.85
		c5.08-8.34,10.95-16.24,17.86-23.17c15.75-17.36,36.67-29.92,59.3-35.92c1-0.09,2.4-0.84,3.21,0.13
		c4.48,4.56,8.9,9.32,14.4301,12.65c16.6499,10.46,36.98,13.11,56.2899,12.06c20.7101-1.28,41.2101-5.7,60.8301-12.37
		c0.74,8.57,0.1499,17.2,0.3199,25.8c-0.1,9.3,0.12,18.6-0.08,27.91c-26.79-3.71-53.88-5.91-80.9301-4.54
		c-16.77,0.95-33.54,2.55-50.11,5.33c5.36,0.91,10.76-0.15,16.14-0.43c26.92-1.79,54.04-2.53,80.9,0.52
		c11.39,1.3199,22.7799,2.87,34.01,5.3c0.23,32.49-0.0601,64.98,0.12,97.47c-20.37-0.54-40.73,0.22-61.0801,0.92
		c-22.7899,1.82-45.5699,4.6801-67.85,9.97c-21.12,4.97-42.2,11.5-60.95,22.67c-6.05,3.54-11.65,7.76-17.29,11.9
		c-0.18-0.52-0.53-1.55-0.71-2.07c-6.75-20.18-12.91-40.73-15.53-61.91c-0.63-6.6-1.1-13.35,0.36-19.88
		c-2.72,1.6-5-0.58-7.21-1.9301c-1.59-1.05-3.1801-2.06-4.83-2.98c-19.22-10.74-35-26.79-47.22-44.97
		c-3.33-4.72-6.52-9.53-9.49-14.48c-0.51-0.8-1.01-1.6-1.51-2.38c-0.84-1.5-1.69-2.97-2.52-4.45c-0.53-0.92-1.04-1.83-1.54-2.73
		c-0.89-2.09-1.87-4.12-2.93-6.11c-2.99-6.35-6.26-12.56-8.99-19.03c-3.79-9.15-7.11-18.48-10.01-27.94
		c-0.11-0.58-0.33-1.75-0.44-2.34c-1.13-3.14-1.51-6.49-2.48-9.68c-0.21-1.42-0.37-2.84-0.61-4.24c-2.94-15.79-1.9-32.04-1.41-48.02
		c0.89-2.52,0.42-5.29,1.43-7.76c0.23-1.74,0.35-3.5,0.57-5.24c1.72-9.2,4.66-18.15,8.42-26.74c0.5601-1.4,1.23-2.74,1.97-4.05
		c0.65-1.34,1.31-2.68,1.99-4.01c0.62-1.37,1.28-2.71,1.97-4.04c4.03-7.14,8.23-14.19,13.08-20.81
		c10.38-13.57,23.35-25.14,38.01-33.91c5.89-3.45,10.97-8.34,17.53-10.57c15.47-5.37,32.03-6.66,48.31-5.9
		c4.17,1.13,8.6299,0.08,12.79,1.35c2.33,0.26,4.74,0.23,7.01,0.97c1.4,0.2,2.8199,0.39,4.24,0.61c4.66,0.94,9.27,2.07,13.92,3.07
		l0.6799,0.45c4.6901,1.42,9.6801,2.85,13.29,6.36c4.3099-2.96,8.74-5.75,13.25-8.4c0.85-0.51,1.7-1.02,2.5699-1.52
		c4.26-2.41,8.52-4.83,12.9501-6.94c1.74-0.84,3.49-1.69,5.25-2.51c0.9399-0.5,1.89-1,2.86-1.49c0.51-0.24,1.53-0.72,2.04-0.96
		c4.1-1.77,8-3.96,12.1599-5.63c7.13-3.09,14.41-5.8,21.75-8.38C1144.83,273.5,1145.83,273.15,1146.84,272.8z"/>
	<path fill="#D0D0D0" stroke="#D0D0D0" stroke-width="0.5" d="M1210.03,261.72c22.87-0.52,46.09,2.89,67.1699,12.08
		c9.87,4.92,19.87,9.75,28.8,16.31c15.0601,10.66,29.1899,23.03,39.85,38.21c4.6,6.18,8.6,12.79,12.38,19.5
		c2.25,4.19,4.64,8.4,5.77,13.06c1.13,2.11,4.1,1.76,6,2.88c19.28,7.98,35.39,21.69,50.89,35.34
		c11.4,10.39,21.27,22.32,30.6799,34.49c6.2201,8.34,11.8501,17.13,16.6901,26.34c0.91,1.72,1.76,3.47,2.61,5.24
		c2.12,3.7,3.61,7.71,5.34,11.6c1.2001,3.45,2.38,6.89,3.6001,10.34c2.7799,0.23,5.49,0.97,8.0599,2.11
		c4.4,1.65,7.4,5.46,11.63,7.43c23.47,15.83,38.67,41.57,46.38,68.38l0.4301,0.71c2.6299,9.27,4.5199,18.72,5.97,28.24
		c0.2999,2.64-0.02,5.38,0.88,7.93c0.5499,7.71,0.64,15.4901,0.0299,23.2c-0.98,6.34-2.1299,12.71-4.3999,18.76
		c-6.24,18.35-19.03,34.84-36.64,43.44c-2.6,1.15-5.3201,1.96-8.01,2.82c-1.79,0.42-3.51,1.03-5.1801,1.73
		c-1.01,0.36-2.02,0.72-3.01,1.07c-4.0699,1.67-8.51,1.6-12.7699,2.38c-19.41,2.49-40.1801,0.61-57.4901-9.12
		c-4.0399-2.55-8.1899-4.97-11.8899-7.99c-0.3401,13.9-4.91,27.33-5.1101,41.2c-4.7-1.02-8.22-4.44-12.09-7.01
		c-8.2999-5.7-16.6799-11.28-25.01-16.9c-17.47-12.31-37.51-20.36-57.6599-27.14c-17.41-5.27-35.1001-9.53-53.01-12.71
		c-16.9-2.48-33.79-5.29-50.88-6.09c-0.1801-32.49,0.11-64.98-0.12-97.47c-11.2301-2.43-22.62-3.98-34.01-5.3
		c-26.86-3.05-53.98-2.3101-80.9-0.52c-5.38,0.28-10.78,1.34-16.14,0.43c16.5699-2.78,33.34-4.38,50.11-5.33
		c27.05-1.37,54.14,0.83,80.9301,4.54c0.2-9.31-0.02-18.61,0.08-27.91c-0.17-8.6,0.42-17.23-0.3199-25.8
		c-19.62,6.67-40.12,11.09-60.8301,12.37c-19.3099,1.05-39.64-1.6-56.2899-12.06c-5.53-3.33-9.9501-8.09-14.4301-12.65
		c-0.8099-0.97-2.21-0.22-3.21-0.13c-22.63,6-43.55,18.56-59.3,35.92c-6.91,6.93-12.78,14.83-17.86,23.17
		c-2.4,3.85-2.55,8.5-3.23,12.85c-1.03,6.4901-1.91,13.01-3.12,19.48c-0.84-6.4,0.59-12.8,0.79-19.2c0.59-4.8-0.18-10.04,2.44-14.34
		c6.05-10.84,13.11-21.25,22.03-29.95c15.56-16.21,36.8-25.05,57.4001-32.94c-4.1101-7.46-8.3-15.25-9.01-23.89
		c2.0299,3.98,3.86,8.09,6.37,11.81c11.2,17.24,30.21,27.84,49.62,33.29c11.51,3.77,23.9399,2.91,35.6599,0.62
		c18.62-4.2,36.4501-11.57,53.1101-20.84c0.4399-16.21,0.1-32.43,0.2-48.65C1210.01,371.94,1209.9399,316.83,1210.03,261.72z"/>
	<path fill="#F1D4A8" stroke="#F1D4A8" stroke-width="0.5" d="M460.11,457.13c9.6-3.23,20.35-2.35,29.81,1.03
		c11.14,3.88,21.07,11.25,27.88,20.89c1.61,2.35,3.39,4.57,5.31,6.68c0.24,0.62,0.73,1.86,0.97,2.48l0.71,0.16
		c4.53,1.3,9.34,1.37,13.78,3.05c4.55,1.55,8.64,4.31,11.78,7.95c0.07,0.07,0.19,0.22,0.26,0.29c2.18,2.74,4.2,5.62,6.54,8.24
		c3.94,5.29,9.0699,10.37,10.0099,17.18c2.8701,13.78,4.7401,27.81,4.83,41.9c-0.08,10.48-0.95,21.26-5.1,31.01
		c-3.11,6.07-8.09,11.19-9.87,17.93c-1.07,5.32-1.47,11.24,1.65,16l1.48-0.42c-3.47,3.18-7.21,6.06-10.65,9.28
		c-2.6,0.6-4.49,2.37-5.55,4.78c-0.49,0.4-0.98,0.81-1.45,1.22c-1.48,0.67-3.03,1.3-4.13,2.54c-4.93,5.09-10,10.04-15.01,15.04
		c-1.2,1.1-1.83,2.62-2.49,4.07c-0.15,0.15-0.44,0.46-0.59,0.61c-3.16,2.71-6.92,5.3-8.22,9.46c-0.87,1.15-1.81,2.24-2.82,3.28
		c-7.61,7.74-13.26,17.21-18.93,26.42l-0.83-0.73c-3.19-5.55-5.52-11.52-7.14-17.7c-3.6-5.86-6.04-12.39-10.02-18.01
		c-10.53-6.53-21.44-12.5-31.52-19.75c-2.66-2.13-6.07-2.95-8.61-5.25c-5.27-2.69-9.03-7.39-13.47-11.13
		c0.04-0.64,0.1-1.91,0.14-2.55l0.32-0.53c3.58-2.12,6.47-5.15,9.68-7.77c4.94-4.3701,10.21-8.36,15.1-12.79
		c1.39-1.28,2.9-2.43,4.55-3.35c7.43-0.4,13.13-7.47,13.89-14.55c1.05-5.88-1.56-11.51-3.91-16.73
		c-7.86-16.04-22.06-28.14-37.78-36.16c-6.71-3.35-13.52-6.98-20.99-8.22c5.24,3.35,11.14,5.51,16.45,8.77
		c15.71,9.33,31.14,21.48,38.2,38.9c2.65,5.67,5.09,12.66,1.87,18.61c-3.46,5.92-10.77,8.25-17.25,8.75
		c-5.77,0.12-12.48,0.14-16.93-4.12c-2.73-2.38-2.54-6.44-1.76-9.65c0.84-0.88,2.18-1.48,3.36-0.88c2.68,1.25,5.01,3.12,7.62,4.52
		c-2.29-4.31-6.64-6.85-10.41-9.7c-5.68-3.71-11.55-7.57-18.3-8.97c-1.77-1.13-3.48-2.38-5.43-3.17c-4.33,2.51-7.63,6.45-11.58,9.51
		c-1.58-3.67-2.78-7.52-4.88-10.94c-2.17-3.49-3.07-7.59-3.52-11.62c-2.34-11.18,1.74-23.62,10.56-30.95
		c-1.83-8.82,2.87-17.47,8.32-24.08c4.03-2.29,7.76-5.1,11.9-7.21c1.54-0.61,3.09-1.17,4.68-1.65c-0.29-0.16-0.87-0.49-1.16-0.66
		c-0.25-2.83-0.43-5.8,0.64-8.49c4.91-8.56,14.08-13.27,22.92-16.83c4.15-2.02,9.69-0.7,13.14-4.07
		C450.38,463.71,454.72,459.28,460.11,457.13 M461.77,475.92c1.41,1.04,2.93,1.93,4.57,2.59c7.53,3.03,14.27,7.69,20.72,12.56
		c4.94,3.93,10.14,7.73,14.07,12.73c-9.12,6.22-18.07,12.84-25.35,21.21c-3.19-1.58-5.53-4.31-8.33-6.42
		c-10.13-7.6-20.37-15.86-32.86-19.1c-4.73-1.04-9.71-2.42-14.52-1.07c17.31,3.69,33.81,11.59,47.19,23.24
		c2.09,1.95,4.38,3.83,5.77,6.39c-1.23,4.02-3.58,8.35-1.59,12.59c3.07,5.09,8.91,7.46,14.5,8.59c-0.16,9.39-1.22,19.28-6.33,27.4
		c-3.66,5.22-10.08,6.71-15.76,8.58c5.47,1.58,11.58,0.04,15.98-3.4901c5-3.99,7.23-10.37,8.48-16.42c2.99-0.61,5.91-1.49,8.84-2.35
		c-1.16,3.44-2.9,6.64-4.16,10.05c-5.16,13.67-5.81,29.06-1.36,43.01c1.06-3.22,0.14-6.64,0.31-9.94
		c0.17-12.15,2.38-24.41,7.53-35.47c6.56-14.99,18.53-27.17,32.49-35.49c-2.91,0.27-5.55,1.58-8.26,2.54
		c-9.67,3.27-19.44,6.5699-29.63,7.73c-4.24,0.54-8.63,0.47-12.74-0.77c-4.2-1.44-6.65-6.41-5.16-10.61
		c2.03-6.2,6.32-11.36,10.96-15.82c5.35-5.43,11.37-10.14,17.5-14.64c2.93-2.2,6.19-4.01,8.71-6.71c-3.84,0.71-6.45,3.9-10.01,5.26
		c-6.34-7.56-13.76-14.38-22.64-18.82C474.62,480.3,468.55,476.82,461.77,475.92z"/>
	<path fill="#E5BC84" stroke="#E5BC84" stroke-width="0.5" d="M461.77,475.92c6.78,0.9,12.85,4.38,18.92,7.35
		c8.88,4.44,16.3,11.26,22.64,18.82c3.56-1.36,6.17-4.55,10.01-5.26c-2.52,2.7-5.78,4.51-8.71,6.71c-6.13,4.5-12.15,9.21-17.5,14.64
		c-4.64,4.46-8.93,9.62-10.96,15.82c-1.49,4.2,0.96,9.17,5.16,10.61c4.11,1.24,8.5,1.31,12.74,0.77
		c10.19-1.16,19.96-4.46,29.63-7.73c2.71-0.96,5.35-2.27,8.26-2.54c-13.96,8.32-25.93,20.5-32.49,35.49
		c-5.15,11.06-7.36,23.32-7.53,35.47c-0.17,3.3,0.75,6.72-0.31,9.94c-4.45-13.95-3.8-29.34,1.36-43.01c1.26-3.41,3-6.61,4.16-10.05
		c-2.93,0.86-5.85,1.74-8.84,2.35c-1.25,6.05-3.48,12.43-8.48,16.42c-4.4,3.53-10.51,5.07-15.98,3.4901
		c5.68-1.87,12.1-3.36,15.76-8.58c5.11-8.12,6.17-18.01,6.33-27.4c-5.59-1.13-11.43-3.5-14.5-8.59c-1.99-4.24,0.36-8.57,1.59-12.59
		c-1.39-2.56-3.68-4.44-5.77-6.39c-13.38-11.65-29.88-19.55-47.19-23.24c4.81-1.35,9.79,0.03,14.52,1.07
		c12.49,3.24,22.73,11.5,32.86,19.1c2.8,2.11,5.14,4.84,8.33,6.42c7.28-8.37,16.23-14.99,25.35-21.21c-3.93-5-9.13-8.8-14.07-12.73
		c-6.45-4.87-13.19-9.53-20.72-12.56C464.7,477.85,463.18,476.96,461.77,475.92 M489.28,549.31c-0.24,4.17-0.44,8.35-0.17,12.53
		c2.76-0.32,5.57-0.54,8.22-1.41c2.89-1.01,4.18-4.01,5.87-6.31c1.68-2.79,4.44-4.8,5.85-7.77
		C502.63,548.27,495.99,549.36,489.28,549.31z"/>
	<path opacity="0.8" fill="#716352" stroke="#716352" stroke-width="0.5" enable-background="new    " d="M523.11,485.73
		c1.59,0.28,2.16,1.16,1.68,2.64l-0.71-0.16C523.84,487.59,523.35,486.35,523.11,485.73z"/>
	<path opacity="0.76" fill="#6C5E4E" stroke="#6C5E4E" stroke-width="0.5" enable-background="new    " d="M550.35,499.37
		c0.07,0.07,0.19,0.22,0.26,0.29C550.54,499.59,550.42,499.44,550.35,499.37z"/>
	<path fill="#E5BC84" stroke="#E5BC84" stroke-width="0.5" d="M399.72,532.98c7.47,1.24,14.28,4.87,20.99,8.22
		c15.72,8.02,29.92,20.12,37.78,36.16c2.35,5.22,4.96,10.85,3.91,16.73c-0.76,7.08-6.46,14.15-13.89,14.55
		c-7.71,1.27-15.68,3.31-23.45,1.18c-2.12-2.85-6.06-3.83-7.65-7.13c-1.81-3.85-0.13-8.04,0.26-12c-0.43-0.23-1.29-0.69-1.71-0.93
		c-4.61-3.31-8.85-7.13-13.39-10.55c6.75,1.4,12.62,5.2599,18.3,8.97c3.77,2.85,8.12,5.39,10.41,9.7c-2.61-1.4-4.94-3.27-7.62-4.52
		c-1.18-0.6-2.52,0-3.36,0.88c-0.78,3.21-0.97,7.27,1.76,9.65c4.45,4.26,11.16,4.24,16.93,4.12c6.48-0.5,13.79-2.83,17.25-8.75
		c3.22-5.95,0.78-12.94-1.87-18.61c-7.06-17.42-22.49-29.57-38.2-38.9C410.86,538.49,404.96,536.33,399.72,532.98z"/>
	<path fill="#F1D4A8" stroke="#F1D4A8" stroke-width="0.5" d="M489.28,549.31c6.71,0.05,13.35-1.04,19.77-2.96
		c-1.41,2.97-4.17,4.98-5.85,7.77c-1.69,2.3-2.98,5.3-5.87,6.31c-2.65,0.87-5.46,1.09-8.22,1.41
		C488.84,557.66,489.04,553.48,489.28,549.31z"/>
	<path fill="#3D3532" stroke="#3D3532" stroke-width="0.5" d="M385.56,585.55c3.95-3.06,7.25-7,11.58-9.51
		c1.95,0.79,3.66,2.04,5.43,3.17c4.54,3.42,8.78,7.24,13.39,10.55c-0.96,4.52-1.92,9.55,0.35,13.85c1.68,3.39,5.22,5.29,8.75,6.21
		c7.77,2.13,15.74,0.09,23.45-1.18c-1.65,0.92-3.16,2.07-4.55,3.35c-4.89,4.43-10.16,8.42-15.1,12.79c-3.21,2.62-6.1,5.65-9.68,7.77
		l-0.32,0.53c-16.63,14.35-33.73,28.15-50.76,42.03c-6.99,5.12-13.3,11.76-21.95,14.03c-3.87,1.55-8.08,1.22-12.09,2.08
		c-2.58-0.95-5.38-0.17-8.01-0.83c-6.46-1.88-12.95-5.8-15.53-12.32c-3.63-8.55-1.68-18.29,2.05-26.46c1.5-3.07,2.81-6.42,5.44-8.73
		C340.59,623.85,362.99,604.6,385.56,585.55 M335.43,652.74c-2.95,1.63-3.73,5.27-3.15,8.37c-0.09,3.25,1.29,6.95,4.54,8.2
		c2.53,1.08,5.42,3.11,8.16,1.46c3.65-1.65,5.37-6.02,4.28-9.8C347.83,655.31,341.38,649.07,335.43,652.74z"/>
	<path fill="#F1D4A8" stroke="#F1D4A8" stroke-width="0.5" d="M415.96,589.76c0.42,0.24,1.28,0.7,1.71,0.93
		c-0.39,3.96-2.07,8.15-0.26,12c1.59,3.3,5.53,4.28,7.65,7.13c-3.53-0.92-7.07-2.82-8.75-6.21
		C414.04,599.31,415,594.28,415.96,589.76z"/>
	<path fill="#EBEBEB" stroke="#EBEBEB" stroke-width="0.5" d="M560.15,631.5c2.0099-1.84,4.21-3.59,6.93-4.23
		c30.8,61.4,64.26,121.5,101.15,179.46c26.31,40.9,54.15,81.04,86.67,117.3c5.11,5.89,10.98,11.12,15.49,17.52
		c9.92,13.79,19.87,27.55,29.79,41.33c1.12,1.64,3.08,2.33,4.72,3.35c38.66,21.87,77.59,43.29,116.88,64.01
		c40.64,21.42,82.3799,40.6901,124.6899,58.5601c1.65-2.04,4.28,0.9099,6.39,0.0299c19.14-6.2899,38.62-11.5199,58.28-15.9399
		c0.1899,8.2,2.36,16.1799,4.61,24.03c5.66,19.2699,13.87,37.8099,24.42,54.9199c4.88,8.2001,10.3199,16.13,16.76,23.2201
		c-3.38,3.1799-8.26,3.7-12.37,5.5399c-29.2201,11.0601-59.1201,21.8301-84.6901,40.23c-1.6899,1.3401-4.33,2.91-3.3099,5.4501
		c41.7699,172.59,83.5399,345.1799,125.35,517.76c4.4199,17.96,8.5399,36,13.14,53.9099c0.1599,2.38,2.61,1.49,4.1799,1.5
		c-3.39-18.47-7.8099-36.74-11.58-55.1399c-37.15-173.4-74.51-346.75-111.55-520.17c18.89-10.52,38.4-19.89,58-28.99
		c9.89-4.26,19.53-9.3101,29.8301-12.5c3.7599,3.77,6.85,8.12,10.36,12.13c-10.37,15.09-19.54,31.08-26.28,48.14
		c-8.36,21.0699-14.72,43.2799-15.6,66.0499c0.0599,8.37-0.3401,16.8,1.0699,25.1c0.8101,4.9901,0.8301,10.1101,2.1901,15.02
		c0.87-0.2799,1.76-0.5399,2.6599-0.7799c4.49,7.7699,9.61,15.4299,17.04,20.7c1.5699-12.99,3.01-26.22,7.98-38.45
		c5.34-14.0701,13.6801-26.7101,19.8301-40.41c7.38-15.9601,13.5699-32.5,18.12-49.48c0.9199,9.01,3.8999,17.5499,7.1499,25.95
		c-0.9399,11.1-0.24,22.26-0.47,33.39c0.04,164.65,0.01,329.3,0.02,493.95c0.05,2.02,0.26,4.03,0.48,6.0901
		c-0.65,0.0699-1.95,0.1899-2.61,0.26c-12.29,0.0499-24.6,0.36-36.86-0.53c-22.53,0.09-44.99-1.79-67.36-4.24
		c-31.2101-3.15-62.4301-7.92-92.48-17.13c-4.09-1.11-7.99-3.17-12.3-3.13c-0.58,3.35-1.63,6.61-2.81,9.8099
		c4.89-23.1899,9.76-46.4199,12.46-69.99c7.37-61.7,6.92-124.14,2.19-186.03c-0.91-9.8899-1.17-20.0599-4.54-29.47
		c-3.44-5.5499-8.2-10.1899-11.75-15.6799c-24.34-35.03-36.93-76.77-44.15-118.42c-3.92-22.41-5.7-45.14-6.97-67.8199
		c-11.17-9.42-23.15-18.02-34.63-27.12c-34.4-26.63-68.81-53.25-103.22-79.88c-13.1-10.3201-26.62-20.14-39.32-30.9601
		c-27.18-24.1799-52.54-50.59-73.88-80.12c-52.06-71.01-95.91-147.7-135.43-226.28c-8.98-17.94-17.71-36-26.17-54.18
		c-7.36-16.12-15.09-32.09-21.26-48.71c-2.16-5.98-4.71-11.8-7.29-17.6c-4.88-9.56-10.28-18.94-14.39-28.86
		c0.19-4.97,2.07-9.75,4.33-14.12c5.79-9.7599,12.17-19.18,19.2-28.0699c1.01-1.04,1.95-2.13,2.82-3.28
		c3.03-2.88,5.92-5.94,8.22-9.46c0.15-0.15,0.4399-0.46,0.59-0.61c7.48-6.91,14.71-14.16,21.63-21.65c0.47-0.41,0.96-0.82,1.45-1.22
		c2.06-1.34,3.93-2.94,5.55-4.78C552.94,637.56,556.68,634.68,560.15,631.5 M505.28,718.44c-6.6,4.59-6.97,15.2-1.61,20.9
		c1.92,2.12,5.8,2.22,7.7,0.0099c4.88-5.31,4.92-14.46-0.05-19.71C509.89,717.89,507.26,717.71,505.28,718.44 M1108.3,1257.45
		c-3.02,1.05-5.12,3.7201-6.4301,6.53c-3.35,6.99-2.24,16.16,3.33,21.71c3.3,3.2301,9.04,2.9901,12.12-0.4399
		c6.03-6.78,6.2101-17.9399,0.4901-24.96C1115.54,1257.58,1111.67,1256.28,1108.3,1257.45 M1117.3101,1321.42
		c-5.04,1.88-7.41,7.5299-8.14,12.49c-0.76,5.83,1.01,12.38,5.59,16.2799c3.26,2.79,8.67,2.2201,11.5-0.95
		c6.2-6.76,6.5599-17.99,0.47-24.95C1124.53,1321.53,1120.67,1320.25,1117.3101,1321.42 M1130.34,1385.4
		c-10.01,4.89-10.83,20.21-3.59,27.88c3.14,3.58,9.33,3.52,12.5,0.02c6.36-6.9301,6.3-18.66,0-25.6001
		C1137.03,1385.28,1133.4399,1384.3,1130.34,1385.4z"/>
	<path opacity="0.88" fill="#D0CBC5" stroke="#D0CBC5" stroke-width="0.5" enable-background="new    " d="M543.95,645.56
		c1.06-2.41,2.95-4.18,5.55-4.78C547.88,642.62,546.01,644.22,543.95,645.56z"/>
	<path opacity="0.88" fill="#CFC8BD" stroke="#CFC8BD" stroke-width="0.5" enable-background="new    " d="M538.37,649.32
		c1.1-1.24,2.65-1.87,4.13-2.54c-6.92,7.49-14.15,14.74-21.63,21.65c0.66-1.45,1.29-2.97,2.49-4.07
		C528.37,659.36,533.44,654.41,538.37,649.32z"/>
	<path fill="#453F3F" stroke="#453F3F" stroke-width="0.5" d="M1148.96,650.47c20.3501-0.7,40.7101-1.46,61.0801-0.92
		c17.09,0.8,33.98,3.61,50.88,6.09c-17.74,12.05-35.24,24.5-53.6001,35.62c-23.7599,14.95-48.2699,28.78-73.71,40.67
		c-5.83,2.8-11.8099,5.26-17.5599,8.2c-16.8,6.34-33.5601,13.01-51.0901,17.12c-18.89,4.59-38.5699,7.21-57.97,4.75
		c-0.32-1.81-0.61-3.6-0.88-5.4c-3.1-21.0699-4.15-42.39-3.95-63.66c0.1801,0.52,0.53,1.55,0.71,2.07
		c5.64-4.14,11.24-8.36,17.29-11.9c18.7501-11.17,39.83-17.7,60.95-22.67C1103.39,655.15,1126.17,652.29,1148.96,650.47z"/>
	<path fill="#E5BC84" stroke="#E5BC84" stroke-width="0.5" d="M1207.3199,691.26c18.3601-11.12,35.8601-23.57,53.6001-35.62
		c17.9099,3.18,35.6,7.44,53.01,12.71c14.13,19.94,30.37,38.4,48.3099,54.9901l0.55,1.12c-22.5-0.59-45.1801,0.53-67.25,5.21
		c-14.36,3.27-28.92,7.93-40.55,17.29c-5,3.99-9.15,9.05-11.89,14.83c38.86-17.56,80.62-27.42,122.35-35.4
		c10.12,9.2,20.7001,17.9,31.8301,25.87l0.49,0.66c-0.1,2.2-0.37,4.4-0.6801,6.59c1.04-1.73,2.3-3.34,3.9401-4.55
		c0.33,0.17,0.99,0.5,1.3199,0.67c0.6801-0.23,1.38-0.45,2.1-0.65c4.28-0.2,7.8501,2.91,11.0701,5.4
		c14.9,15.49,25.12,36.8,23.14,58.67c-1.49,17.26-9.25,33.35-19.4401,47.13c-7.12,9.77-15.63,18.43-24.6,26.51
		c-4.61,3.81-9,8.16-14.6,10.49c-3.29,1.47-6.6801,2.68-10.0601,3.88c-6.86,15.82-14.9099,31.12-23.7999,45.9
		c-11.4701,19.05-25.49,36.4-40.05,53.14c-8.7,9.7401-17.4,19.52-27.08,28.3201c-0.14,5.61-0.0901,11.23-0.1901,16.86
		c-2.5699,3.85-6.6699,7.6699-5.4399,12.78c1.89,12.46,2.64,25.3799-0.61,37.6899c-4.4701,18.7-14.79,35.45-27.0701,50.03
		c-4.77,5.1899-8.62,11.38-14.52,15.4199c-23.6799-34.8199-47.1399-69.7699-70.8099-104.59c-3.47-5.66-7.86-10.77-10.7001-16.79
		c3.6101,1.7101,6.5701,4.4401,9.7001,6.88c15.4399,11.4701,31.54,22.1001,48.51,31.1801c0.1799-19.92,0.16-39.86-0.01-59.78
		c-7.96-2.21-17.0701-4.19-22.1901-11.3c7.3401,1.65,14.53,4.38,22.1801,4.22c0.05-1.72,0.11-3.44,0.1899-5.14l0.9401-0.01
		c16.17-1.06,31.84-8.18,43.34-19.6c6.11-6.09,11.24-13.18,15.14-20.88c3.12-5.69,4.5701-12.22,8.76-17.32
		c-11.8,7.14-26.49,7.29-39.34,3.1c-5.1901-1.22-10.28-5.11-15.76-3.06c-5.74,2.11-9.4601,7.47-12.4401,12.54
		c-0.27-0.35-0.8199-1.06-1.09-1.42c0.91-9.4,0.0601-18.85,0.37-28.28c-0.04-8.27,0.13-16.55-0.08-24.82
		c-9.17-2.71-18.74-5.57-26.05-12.04c-1.88-1.54-2.84-3.81-3.8099-5.95c9.8199-2.85,19.8999-4.7,29.8099-7.23
		c0.33-55.29,0.0601-110.59,0.12-165.8799C1207.66,711.12,1208.78,701.08,1207.3199,691.26 M1304.0601,773.19
		c-15.92,3.44-31.4901,10.04-43.92,20.73l1.33-0.27c-6.01,5.48-11.89,11.18-16.4099,18c9.4299,4.59,20.0099,6.08,30.08,8.7599
		c2.92,1.65,6.48,1.6201,9.73,2.27c18.27,1.77,37.86,0.63,54.0699-8.81c14.77-9.12,26.65-22.36,36.03-36.84
		c-9.1799-2.57-18.59-4.39-28.09-5.2401C1332.65,770.11,1318.1,770.08,1304.0601,773.19z"/>
	<path fill="#3D3532" stroke="#3D3532" stroke-width="0.5" d="M1313.9301,668.35c20.1499,6.78,40.1899,14.83,57.6599,27.14
		c8.3301,5.62,16.7101,11.2,25.01,16.9c3.87,2.57,7.39,5.99,12.09,7.01c-1.1299,10.5699-2.58,21.11-4.6,31.54
		c-0.23,1.32-0.7899,2.94,0.36,4.04c-0.72,0.2-1.4199,0.42-2.1,0.65c-0.33-0.17-0.99-0.5-1.3199-0.67c-1.29-0.88-2.52-1.8-3.75-2.7
		c-11.13-7.97-21.7101-16.67-31.8301-25.87c-1.09-1.03-2.13-2.05-3.21-3.05C1344.3,706.75,1328.0601,688.29,1313.9301,668.35z"/>
	<path fill="#B9B9B9" stroke="#B9B9B9" stroke-width="0.5" d="M512.06,678.5c1.3-4.16,5.06-6.75,8.22-9.46
		C517.98,672.56,515.09,675.62,512.06,678.5z"/>
	<path fill="#63534D" stroke="#63534D" stroke-width="0.5" d="M490.31,708.2c5.67-9.21,11.32-18.68,18.93-26.42
		c-7.03,8.89-13.41,18.31-19.2,28.0699c-0.2-0.8-0.38-1.6-0.56-2.38L490.31,708.2z"/>
	<path fill="#F1D4A8" stroke="#F1D4A8" stroke-width="0.5" d="M1133.61,731.93c25.4401-11.89,49.9501-25.72,73.71-40.67
		c1.4601,9.82,0.3401,19.86,0.66,29.77c-0.0599,55.29,0.21,110.59-0.12,165.8799c-9.91,2.53-19.99,4.38-29.8099,7.23
		c0.97,2.14,1.9299,4.41,3.8099,5.95c7.3101,6.47,16.88,9.33,26.05,12.04c0.21,8.27,0.0399,16.55,0.08,24.82
		c-0.3099,9.43,0.54,18.88-0.37,28.28c-3.3199-4.61-6.88-9.89-12.7-11.42c-3.27-1.09-6.51,0.44-9.53,1.55
		c-9.97,3.8-20.9301,5.81-31.53,3.83c-4.71-0.83-8.97-3.03-13.1799-5.16c4.2699,5.0699,5.6799,11.64,8.8099,17.36
		c6.87,13.42,17.36,25.28,30.77,32.42c8.55,4.63,18.1,7.41,27.8099,8.07c-0.08,1.7-0.1399,3.42-0.1899,5.14
		c-7.65,0.16-14.84-2.57-22.1801-4.22c5.12,7.11,14.2301,9.09,22.1901,11.3c0.17,19.92,0.1899,39.86,0.01,59.78
		c-16.97-9.08-33.0701-19.71-48.51-31.1801c-3.13-2.4399-6.09-5.1699-9.7001-6.88c2.8401,6.02,7.2301,11.13,10.7001,16.79
		c23.67,34.8201,47.13,69.77,70.8099,104.59c-1.9399,1.3501-3.83,2.78-5.6699,4.26c-10.26-1.3099-20.9501-2.5599-31.05,0.41
		c-2.15,1.26-2.74,3.77-3.64,5.92c-12.87-7.87-24.8199-17.8401-32.8099-30.79c-6.16-9.78-10.6-20.55-14.4501-31.41
		c-2.11-7.0499-4.8199-14.02-5.5299-21.39c0.22-4.4199-0.77-8.85,0-13.23c0.62-4.6699,0.84-9.37,1.5499-14.02
		c-0.5,0.26-1.5,0.79-2,1.0601c-0.0499-8.99-0.24-17.97-0.3199-26.95c0.0599-3.26-0.8-6.78-3.0901-9.17
		c-13.4399-12.32-25.1-26.39-36.8999-40.24c-21.11-25.48-39.29-53.72-51.3101-84.65c-3.1699-0.92-6.59-1.21-9.5699-2.62
		c-15.48-11.2-29.6-24.5-40.76-40.07c-10.27-14.39-17.95-31.35-18.28-49.28c-0.49-16.0601,5.57-31.7401,14.97-44.58
		c3.89-5.23,7.87-10.72,13.77-13.85c0.27,1.8,0.56,3.59,0.88,5.4c19.4,2.46,39.08-0.16,57.97-4.75
		c17.53-4.11,34.29-10.78,51.0901-17.12c20.6799,6.12,41.33,12.61,60.9299,21.73C1168.87,745.07,1150.62,736.8,1133.61,731.93
		 M1045.0699,777.02c10.01,15.47,22.8401,29.76,39.1801,38.66c18.4399,8.85,39.9,9.2,59.7,5.6c-0.37-0.07-1.11-0.21-1.48-0.28
		c10.8201-2.9,22.05-4.62,32.42-9.1c-4.1901-7.1-10.36-12.6-16.22-18.25l1.1899,0.28c-15.53-13.28-35.66-20.38-55.79-22.64
		C1084.29,769.49,1064.2,771.84,1045.0699,777.02z"/>
	<path fill="#D0D0D0" stroke="#D0D0D0" stroke-width="0.5" d="M505.28,718.44c1.98-0.73,4.61-0.55,6.04,1.2
		c4.97,5.25,4.93,14.4,0.05,19.71c-1.9,2.21-5.78,2.11-7.7-0.0099C498.31,733.64,498.68,723.03,505.28,718.44z"/>
	<path fill="#2C3D4D" stroke="#2C3D4D" stroke-width="0.5" d="M1362.24,723.34c1.08,1,2.12,2.02,3.21,3.05
		c-41.73,7.98-83.49,17.84-122.35,35.4c2.74-5.78,6.89-10.84,11.89-14.83c11.63-9.36,26.1901-14.02,40.55-17.29
		c22.0699-4.68,44.75-5.8,67.25-5.21L1362.24,723.34z"/>
	<path fill="#2C3D4D" stroke="#2C3D4D" stroke-width="0.5" d="M1116.05,740.13c5.75-2.94,11.73-5.4,17.5599-8.2
		c17.01,4.87,35.26,13.14,43.37,29.93C1157.38,752.74,1136.73,746.25,1116.05,740.13z"/>
	<path fill="#2C3D4D" stroke="#2C3D4D" stroke-width="0.5" d="M1045.0699,777.02c19.13-5.18,39.2201-7.53,59-5.73
		c20.13,2.26,40.26,9.36,55.79,22.64l-1.1899-0.28c-8.8301-3.15-17.9401-5.46-27.03-7.72c2.2999,4.31,3.8199,9.17,3.25,14.11
		c-0.66,8.81-7.15,16.87-15.72,19.17c-9.66,2.93-20.79-2.37-24.9501-11.4901c-4.48-8.9-1.9-20.2599,5.5-26.78
		c-13-0.41-25.99,0.93-38.7999,3.07c5.11,13.98,16.98,24.65,30.46,30.44c16,6.84,33.9,8.37,51.09,6.55
		c0.37,0.07,1.11,0.21,1.48,0.28c-19.7999,3.6-41.26,3.25-59.7-5.6C1067.91,806.78,1055.08,792.49,1045.0699,777.02 M1123.21,788.37
		c-3.97,1.6-4.2899,7.82-0.62,9.94c2.73,1.84,6.5801-0.2,7.2101-3.27C1131.11,791.25,1127.15,786.58,1123.21,788.37z"/>
	<path fill="#2C3D4D" stroke="#2C3D4D" stroke-width="0.5" d="M1304.0601,773.19c14.0399-3.11,28.59-3.08,42.8199-1.4
		c9.5,0.85,18.91,2.67,28.09,5.2401c-9.38,14.48-21.26,27.72-36.03,36.84c-16.21,9.44-35.7999,10.58-54.0699,8.81
		c-3.25-0.65-6.8099-0.62-9.73-2.27c17.35,2.81,35.61,1.13,52-5.34c14.08-5.68,26.64-16.55,31.9299-31.06
		c-12.8099-2.14-25.7999-3.48-38.7999-3.07c4.6799,4.36,7.8099,10.5,7.71,16.98c0.2001,9.59-6.5699,18.99-15.97,21.27
		c-6.99,2.16-14.92-0.07-20.13-5.08c-7.72-7.05-8.89-19.4-3.5-28.19c-9.05,2.29-18.14,4.51-26.91,7.73l-1.33,0.27
		C1272.5699,783.23,1288.14,776.63,1304.0601,773.19 M1312.23,788.36c-4.27,1.68-4.26,8.62,0.02,10.29
		c3.09,1.39,6.5699-1.39,6.72-4.56C1319.55,790.51,1315.78,786.75,1312.23,788.36z"/>
	<path fill="#FFFFFF" stroke="#FFFFFF" stroke-width="0.5" d="M1060.92,784.01c12.8099-2.14,25.7999-3.48,38.7999-3.07
		c-7.4,6.52-9.98,17.88-5.5,26.78c4.16,9.1201,15.29,14.42,24.9501,11.4901c8.5699-2.3,15.0599-10.36,15.72-19.17
		c0.5699-4.94-0.9501-9.8-3.25-14.11c9.09,2.26,18.2,4.57,27.03,7.72c5.86,5.65,12.0299,11.15,16.22,18.25
		c-10.37,4.48-21.6,6.2-32.42,9.1c-17.1899,1.82-35.09,0.29-51.09-6.55C1077.9,808.66,1066.03,797.99,1060.92,784.01z"/>
	<path fill="#FFFFFF" stroke="#FFFFFF" stroke-width="0.5" d="M1320.27,780.94c13-0.41,25.99,0.93,38.7999,3.07
		c-5.2899,14.51-17.85,25.38-31.9299,31.06c-16.39,6.47-34.65,8.15-52,5.34c-10.0701-2.68-20.65-4.17-30.08-8.7599
		c4.5199-6.82,10.3999-12.52,16.4099-18c8.77-3.22,17.86-5.44,26.91-7.73c-5.39,8.79-4.22,21.14,3.5,28.19
		c5.21,5.01,13.14,7.24,20.13,5.08c9.4-2.28,16.17-11.68,15.97-21.27C1328.08,791.44,1324.95,785.3,1320.27,780.94z"/>
	<path fill="#FFFFFF" stroke="#FFFFFF" stroke-width="0.5" d="M1123.21,788.37c3.9401-1.79,7.9,2.88,6.5901,6.67
		c-0.63,3.07-4.4801,5.11-7.2101,3.27C1118.92,796.19,1119.24,789.97,1123.21,788.37z"/>
	<path fill="#FFFFFF" stroke="#FFFFFF" stroke-width="0.5" d="M1312.23,788.36c3.55-1.61,7.3201,2.15,6.74,5.73
		c-0.15,3.17-3.63,5.95-6.72,4.56C1307.97,796.98,1307.96,790.04,1312.23,788.36z"/>
	<path fill="#E97954" stroke="#E97954" stroke-width="0.5" d="M1140.6801,954.03c4.21,2.1299,8.47,4.33,13.1799,5.16
		c10.6,1.98,21.5601-0.03,31.53-3.83c3.02-1.11,6.26-2.64,9.53-1.55c5.8199,1.53,9.38,6.81,12.7,11.42
		c0.27,0.36,0.8199,1.07,1.09,1.42c-0.21,0.37-0.62,1.11-0.83,1.48c-2.35,0.16-4.67,0.51-7,0.74
		c-17.34,1.05-35.9401,1.64-51.79-6.59c7.0701,12.89,17.4,24.29,30.52,31.1899c8.7001,4.6,18.59,6.6801,28.41,6.58l0.91-0.01
		c-0.0601,3.94-0.03,7.88,0.08,11.83l-0.9401,0.01c-9.71-0.66-19.2599-3.44-27.8099-8.07c-13.41-7.14-23.9-19-30.77-32.42
		C1146.36,965.67,1144.95,959.1,1140.6801,954.03z"/>
	<path fill="#D47150" stroke="#D47150" stroke-width="0.5" d="M1208.71,966.65c2.98-5.07,6.7001-10.4301,12.4401-12.54
		c5.48-2.05,10.5699,1.84,15.76,3.06c12.85,4.19,27.5399,4.04,39.34-3.1c-4.1899,5.1-5.64,11.63-8.76,17.32
		c-3.9,7.7-9.03,14.79-15.14,20.88c-11.5,11.42-27.1699,18.54-43.34,19.6c-0.11-3.95-0.14-7.89-0.08-11.83
		c15.3899,0.22,30.46-6.09,41.6-16.6c6.26-5.83,11.6899-12.62,15.72-20.17c-18.3,8.07-38.9399,6.61-58.37,4.86
		C1208.09,967.76,1208.5,967.02,1208.71,966.65z"/>
	<path fill="#FFFFFF" stroke="#FFFFFF" stroke-width="0.5" d="M1179.61,993.47c-13.12-6.9-23.45-18.3-30.52-31.1899
		c15.85,8.23,34.4501,7.64,51.79,6.59c2.34-0.06,4.6899,0.01,7.04,0.06c0.1799,10.37,0.01,20.74,0.1,31.12
		C1198.2,1000.15,1188.3101,998.07,1179.61,993.47z"/>
	<path fill="#EBEBEB" stroke="#EBEBEB" stroke-width="0.5" d="M1207.88,968.13c19.4301,1.75,40.0699,3.21,58.37-4.86
		c-4.03,7.55-9.46,14.34-15.72,20.17c-11.14,10.51-26.2101,16.82-41.6,16.6l-0.91,0.01c-0.09-10.38,0.08-20.75-0.1-31.12
		c-2.3501-0.05-4.7001-0.12-7.04-0.06C1203.21,968.64,1205.53,968.29,1207.88,968.13z"/>
	<path fill="#89141A" stroke="#89141A" stroke-width="0.5" d="M1278.84,1051.28c2.15-3.89,7.41-3.8201,10.9601-2.1901
		c3.72,4.53,2.7,10.88,3.34,16.35c1.41-0.1599,3.02,0.0701,3.72,1.53c1.63,2.3401,3.72,4.4501,4.8,7.14
		c0.59,4.54-0.0801,9.14,0.2799,13.72c0.0901,2.02,0.3601,4.0901,0.04,6.14c-2.48,13.13-6.0599,26.04-10.59,38.62
		c-2.61,6.89-4.61,14.0601-8.23,20.53c-5.3201,9.47-10.99,18.79-17.8,27.28c-11.5699,14.6-23.02,29.36-35.02,43.5699
		c8.87,19,20.6901,36.49,33.5601,53.01c11.52,15.4401,25.16,29.25,35.65,45.46c3.76,6.3501,9.0399,12.1101,10.59,19.54
		c0.12,1.47,0.9299,3.46-0.7001,4.4501c-5.8999,5.0699-12.6599,9.09-19.61,12.5599c-4.96,2.37-10.2,4.67-15.7999,4.7
		c-3.05,0.05-6.0801,0-9.11,0.05c-3.65-3.95-8.16-6.96-11.8401-10.87c-5.1-5.3-9.73-11.03-14.23-16.83
		c-12.15-15.1001-22.91-31.49-30.4-49.42c-3.25-8.4-6.23-16.9399-7.1499-25.95c-2.7001-11.0801-4.42-22.36-6.0701-33.63
		c-0.1899-2.4301-2.48-3.7001-3.9199-5.3501c-5.01-4.8199-8.27-11.84-6.77-18.87c1.7999,4.5801,2.74,9.6901,6.1899,13.4401
		c4.59,5.71,12.35,7.63,19.39,6.84c-0.08-4.83-2.17-9.23-3.55-13.76c-4.0199-12.5-8.46-24.86-12.09-37.47
		c10.1-2.97,20.79-1.72,31.05-0.41c1.84-1.48,3.73-2.9099,5.6699-4.26c5.9-4.0399,9.75-10.23,14.52-15.4199
		c12.28-14.5801,22.6-31.3301,27.0701-50.03c3.25-12.3101,2.5-25.23,0.61-37.6899C1272.17,1058.95,1276.27,1055.13,1278.84,1051.28z
		"/>
	<path fill="#C82631" stroke="#C82631" stroke-width="0.5" d="M1124.96,1060.04c3.0901-2.4301,7.3301-3.27,11.1901-3.41
		c0.97,4.1,0.64,8.35,0.76,12.53c-0.51,5.2799-1.0901,10.64-0.37,15.9299c0.61,3.01,1.27,6.03,1.51,9.11
		c0.71,7.37,3.4199,14.3401,5.5299,21.39c3.8501,10.86,8.29,21.63,14.4501,31.41c7.99,12.95,19.9399,22.92,32.8099,30.79
		c0.9-2.15,1.49-4.66,3.64-5.92c3.63,12.61,8.0701,24.97,12.09,37.47c1.38,4.53,3.4701,8.9301,3.55,13.76
		c-7.04,0.79-14.8-1.13-19.39-6.84c-3.45-3.75-4.39-8.86-6.1899-13.4401c-1.5,7.03,1.76,14.05,6.77,18.87
		c1.4399,1.65,3.73,2.92,3.9199,5.3501c1.65,11.27,3.37,22.5499,6.0701,33.63c-4.55,16.98-10.74,33.5199-18.12,49.48
		c-6.15,13.7-14.4901,26.34-19.8301,40.41c-4.97,12.23-6.41,25.46-7.98,38.45c-7.4301-5.27-12.55-12.9301-17.04-20.7
		c-0.8999,0.24-1.7899,0.5-2.6599,0.7799c-1.36-4.9099-1.38-10.0299-2.1901-15.02c-1.41-8.2999-1.01-16.73-1.0699-25.1
		c0.88-22.77,7.24-44.98,15.6-66.0499c6.74-17.0601,15.91-33.05,26.28-48.14c-3.51-4.01-6.6001-8.36-10.36-12.13
		c-2.4301-2.4601-4.7401-5.01-7-7.59c-6.4401-7.0901-11.88-15.02-16.76-23.2201c-10.55-17.11-18.76-35.65-24.42-54.9199
		c-2.25-7.8501-4.42-15.8301-4.61-24.03c-0.63-7.5601,1.49-17.14,9.65-19.75C1122.34,1068.83,1123.88,1064.49,1124.96,1060.04z"/>
	<path fill="#EBEBEB" stroke="#EBEBEB" stroke-width="0.5" d="M1137.6,1068.01c0.5-0.27,1.5-0.8,2-1.0601
		c-0.71,4.65-0.9299,9.3501-1.5499,14.02c-0.77,4.38,0.22,8.8101,0,13.23c-0.24-3.08-0.9-6.1-1.51-9.11
		c-0.7201-5.2899-0.14-10.65,0.37-15.9299C1137.08,1068.87,1137.4301,1068.3,1137.6,1068.01z"/>
	<path fill="#D0D0D0" stroke="#D0D0D0" stroke-width="0.5" d="M1301.9399,1087.83c21.8501,3.61,43.13,10.0601,64.01,17.37
		c40.2001,14.4,79.14,32.17,117,51.88c11.9,5.16,21.24,14.61,29.91,24c12.97,14.7101,23.3,31.4701,34.46,47.55
		c35.7401,53.34,70,107.66,103.91,162.1899c3.1901,5.4501,7.01,10.55,9.5801,16.3501c27.49,43.75,54.33,87.8999,80.74,132.3099
		c4.84,8.09,7.59,17.27,9.33,26.48c1.78,10.54,1.5,21.88-3.26,31.65c-13.11,22.52-26.3099,44.99-39.46,67.5
		c-6.6801,11.04-12.7001,22.5-19.85,33.26c-33.9901,42.77-70.2101,83.6901-106.4801,124.52
		c-17.9399,20.38-35.97,40.67-53.9199,61.04c-2.5,2.71-4.63,5.9199-8.01,7.62c-2.34-1.8-4.48-3.8201-6.86-5.53
		c-2.0801-1.15-4.13-2.3301-5.8401-3.96c1.74-2.6901,4.4601-4.52,6.38-7.0601c0.6001-3.59,0.41-7.4-0.62-10.87
		c-1.77-4.5699-1.5299-9.65-3.9199-14c-0.28-0.63-0.8301-1.87-1.11-2.49l-0.3201-0.79c-0.0699-0.1699-0.2-0.51-0.27-0.6699
		l-0.3099-0.75c0.24-1.8-0.3401-3.5701-1.9401-4.4501c-0.52-1.08-1.02-2.14-1.5-3.1799l-0.11-0.24l-0.1-0.2301l-0.3-0.6699
		c-0.45-2.87-0.95-6.4601-4.38-7.1c-8.2-13.88-17.9199-26.79-28.51-38.91c-2.73-3.6801-5.7799-7.12-9.2699-10.1
		c-0.27-0.4501-0.8301-1.37-1.11-1.8201l-0.7101-1.1799c13.37-8.4601,24.48-19.77,36.1801-30.3
		c11.0699-10.29,21.59-21.2,30.96-33.0699c23.35-29.4701,43.58-61.3101,61.76-94.1901c-2.25-1.73-4.79-3.15-6.6801-5.27
		c-1.6899-2,0.5901-4.0399,1.4-5.86c2.8101-5.33,7.5-10.41,6.79-16.86c0.04-1.29-0.36-2.39-1.22-3.28
		c-44.52-51.85-89.1901-103.59-133.6901-155.46c-8.14,26.88-19.6699,53.08-36.65,75.61c-1.4199,2.0601-3.4299,3.79-4.47,6.0601
		c0.61,3.7799-0.4,7.5099-0.74,11.2699c-5.6899,50.7101-8.47,101.76-7.9,152.78c0.29,20.11,1.0901,40.22,2.77,60.27
		c2.78-0.03,5.6-0.09,8.39,0.23c-5.6899,0-11.41-0.21-17.05,0.5601c-1.99-0.66-4.1-0.55-5.83,0.6599
		c-9.1801,1-18.38,3.8401-25.62,9.75c-10.58,8.4-19.3101,18.89-27.27,29.75c-3.73,5.25-7.37,11.14-7.2999,17.8301
		c-0.2401,4.99,1.8099,9.6699,3.9199,14.08c-10.28,0.02-20.39,2.11-30.58,3.2001c-16.4301,1.0699-32.79,2.86-49.25,3.2599
		c-16.12,1.5801-32.38,0.8-48.54,1.4801c-0.22-2.0601-0.4299-4.0701-0.48-6.0901c-0.01-164.6499,0.02-329.2999-0.02-493.95
		c0.23-11.13-0.47-22.29,0.47-33.39c7.49,17.9301,18.25,34.3199,30.4,49.42c4.5,5.7999,9.13,11.5299,14.23,16.83
		c3.6801,3.91,8.1901,6.92,11.8401,10.87c3.0299-0.05,6.0599,0,9.11-0.05c5.6-0.0299,10.84-2.33,15.7999-4.7
		c6.9501-3.47,13.7101-7.49,19.61-12.5599c1.63-0.9901,0.8201-2.9801,0.7001-4.4501c-1.55-7.4299-6.83-13.1899-10.59-19.54
		c-10.49-16.21-24.13-30.0199-35.65-45.46c-12.87-16.52-24.6901-34.01-33.5601-53.01c12-14.21,23.4501-28.97,35.02-43.5699
		c6.8101-8.49,12.48-17.8101,17.8-27.28c3.62-6.47,5.62-13.64,8.23-20.53c4.53-12.58,8.11-25.49,10.59-38.62
		C1302.3,1091.92,1302.03,1089.85,1301.9399,1087.83 M1498.1899,1826.3199C1498.77,1826.8,1498.77,1826.8,1498.1899,1826.3199
		 M1499.1899,1828.2C1499.71,1828.73,1499.71,1828.73,1499.1899,1828.2 M1530.24,1839.38c-6.49,1.9-8.4,11.28-3.03,15.48
		c4.7101,4.6,13.48,1.42,14.6001-4.9399C1543.4,1843.49,1536.52,1837.13,1530.24,1839.38z"/>
	<path fill="#D0D0D0" stroke="#D0D0D0" stroke-width="0.5" d="M1156.9301,1195.0601c2.2599,2.58,4.5699,5.1299,7,7.59
		c-10.3,3.1899-19.9401,8.24-29.8301,12.5c-19.6,9.1-39.11,18.47-58,28.99c37.04,173.42,74.4,346.77,111.55,520.17
		c3.77,18.3999,8.1899,36.6699,11.58,55.1399c-1.5699-0.01-4.02,0.88-4.1799-1.5c-4.6001-17.9099-8.7201-35.95-13.14-53.9099
		c-41.8101-172.5801-83.5801-345.17-125.35-517.76c-1.02-2.54,1.62-4.11,3.3099-5.4501c25.5699-18.3999,55.47-29.1699,84.6901-40.23
		C1148.67,1198.76,1153.55,1198.24,1156.9301,1195.0601z"/>
	<path fill="#D0D0D0" stroke="#D0D0D0" stroke-width="0.5" d="M1108.3,1257.45c3.37-1.1699,7.24,0.13,9.51,2.8401
		c5.72,7.02,5.5399,18.1799-0.4901,24.96c-3.08,3.4301-8.8199,3.67-12.12,0.4399c-5.5699-5.5499-6.6799-14.72-3.33-21.71
		C1103.1801,1261.17,1105.28,1258.5,1108.3,1257.45z"/>
	<path fill="#D0D0D0" stroke="#D0D0D0" stroke-width="0.5" d="M1117.3101,1321.42c3.36-1.17,7.22,0.11,9.4199,2.87
		c6.09,6.96,5.73,18.1899-0.47,24.95c-2.83,3.17-8.24,3.74-11.5,0.95c-4.58-3.8999-6.35-10.45-5.59-16.2799
		C1109.9,1328.95,1112.27,1323.3,1117.3101,1321.42z"/>
	<path fill="#D0D0D0" stroke="#D0D0D0" stroke-width="0.5" d="M1130.34,1385.4c3.1-1.1,6.6901-0.12,8.91,2.2999
		c6.3,6.9401,6.36,18.67,0,25.6001c-3.17,3.5-9.36,3.5599-12.5-0.02C1119.51,1405.61,1120.33,1390.29,1130.34,1385.4z"/>
	<path fill="#D5BC9C" stroke="#D5BC9C" stroke-width="0.5" d="M1393.12,1740.7c1.73-1.21,3.84-1.3199,5.83-0.6599
		C1397.3101,1741.55,1395.05,1741.48,1393.12,1740.7z"/>
	<path fill="#F1D4A8" stroke="#F1D4A8" stroke-width="0.5" d="M1398.95,1740.04c5.64-0.77,11.3601-0.5601,17.05-0.5601
		c6.66,1.13,13.84,2.76,18.73,7.8c3.67,3.48,8.62,5.25,12.26,8.78c2.85,3.5699,3.1801,8.3199,4.0701,12.6299
		c2.46,3.7101,6.34,6.25,8.75,10.04c0.2799,0.4501,0.84,1.37,1.11,1.8201c2.7899,6.96,6.2799,13.8199,7.08,21.3899
		c0.8,5.1901-0.7,10.65,1.38,15.65c4.3199,12.73,6.13,26.11,7.14,39.4701c1.4-11.4,2.0599-23.2001-1.13-34.3701
		c-1.13-4.24-3.6901-8.1399-3.4401-12.6599c0.0801-6.52-0.9399-12.9501-1.76-19.38c10.5901,12.12,20.3101,25.03,28.51,38.91
		c1.2101,2.5,2.63,4.9099,4.38,7.1l0.3,0.6699l0.1,0.24l0.11,0.2301c0.48,1.0399,0.98,2.1,1.5,3.1799
		c-0.35,1.76,0.29,3.53,1.9401,4.4501l0.3099,0.75c0.0701,0.1599,0.2001,0.5,0.27,0.6699l0.3201,0.79
		c0.2799,0.62,0.83,1.86,1.11,2.49c2.39,4.35,2.1499,9.4301,3.9199,14c0.4601,4.51,2.13,10.5-2.1899,13.65
		c-10.0701,9.53-20.04,19.3099-31.47,27.26c-3.05,3.0499-5.6901,6.64-9.55,8.77c-9,4.6-20.77,3.1499-28.28-3.65
		c-2.9399-2.4501-5.48-5.4401-6.46-9.2001c-7.96,2.8-16.0601,5.14-23.97,8.0601c-6.14,2.35-12.92,2.25-19.3,1.15
		c-7.01-2.0601-10.1-9.25-12.71-15.39c-3.7101,0.7999-7.97,1.65-11.38-0.49c-2.2101-2.04-2.84-5.14-4.29-7.65
		c-3.65-6.96-10.13-13.0701-9.62-21.55c-4.92-0.9199-8.17-5.2899-10.22-9.51c-3.03-6.3999-3.1901-13.62-3.14-20.5499
		c1-3.88,3.29-7.27,5.04-10.8301c3.33-2.46,4.61-6.5399,6.95-9.7899c8.3199-13.35,19.95-24.3,32.51-33.62
		c3.74-2.9701,8.5599-3.76,13.12-4.66c10.67-2.0601,21.51-3.0601,32.26-4.66c-3.6-1.4099-7.53-0.78-11.27-0.87
		c-11.12,0.12-22.79,0.4-33.01,5.3c-11.1,7.3199-20.86,16.6899-28.5699,27.5399c-4.4701,6-8.67,12.3101-11.53,19.25
		c-4.01-2.5499-6.84-6.45-9.03-10.58c-2.11-4.41-4.16-9.09-3.9199-14.08c-0.0701-6.6901,3.5699-12.5801,7.2999-17.8301
		c7.96-10.86,16.6901-21.35,27.27-29.75c7.24-5.9099,16.4399-8.75,25.62-9.75C1395.05,1741.48,1397.3101,1741.55,1398.95,1740.04
		 M1438.98,1808.04c-26.71,4.38-53.66,15.35-71.53,36.3999c-3.6,4.8401-7.63,9.6801-9.36,15.5701
		c6.26-7.3101,12.27-14.99,20.02-20.8201c6.78-5.7699,15-9.3199,22.86-13.3199c15.8301-7.46,32.37-13.34,49.0701-18.49
		C1446.42,1806.15,1442.63,1807.6801,1438.98,1808.04 M1433.65,1854.65c-14.1801,6.38-28.11,13.27-42.27,19.6899
		c-5.62,2.29-10.6,7.49-11.27,13.6901c5-6.4601,11.4-11.9601,19.25-14.5901c8.27-2.5699,15.9401-6.6299,23.6901-10.4399
		c6.3099-3.29,12.85-6.15,18.95-9.84c2.53-1.61,5.61-2.67,7.28-5.3201C1443.72,1849.23,1438.83,1852.3199,1433.65,1854.65z"/>
	<path fill="#E5BC84" stroke="#E5BC84" stroke-width="0.5" d="M1385.98,1775.9c10.22-4.9,21.89-5.1801,33.01-5.3
		c3.74,0.09,7.67-0.5399,11.27,0.87c-10.75,1.6-21.59,2.6-32.26,4.66c-4.5601,0.9-9.38,1.6899-13.12,4.66
		c-12.5601,9.3199-24.1901,20.27-32.51,33.62c-2.34,3.25-3.62,7.33-6.95,9.7899c0.12-0.38,0.35-1.13,0.46-1.51
		c2.86-6.9399,7.0599-13.25,11.53-19.25C1365.12,1792.59,1374.88,1783.22,1385.98,1775.9z"/>
	<path fill="#E5BC84" stroke="#E5BC84" stroke-width="0.5" d="M1460.92,1780.55c3.49,2.98,6.5399,6.4199,9.2699,10.1
		c0.8201,6.4299,1.8401,12.86,1.76,19.38c-0.25,4.52,2.3101,8.4199,3.4401,12.6599c3.1899,11.17,2.53,22.9701,1.13,34.3701
		c-1.01-13.3601-2.8201-26.7401-7.14-39.4701c-2.08-5-0.58-10.46-1.38-15.65C1467.2,1794.37,1463.71,1787.51,1460.92,1780.55z"/>
	<path fill="#C82631" stroke="#C82631" stroke-width="0.5" d="M996.87,1795.28c4.31-0.04,8.21,2.02,12.3,3.13
		c30.05,9.21,61.27,13.98,92.48,17.13c22.37,2.45,44.83,4.33,67.36,4.24c12.26,0.89,24.5699,0.58,36.86,0.53
		c0.86,3.1499,1.3,6.4099,1.17,9.7c-0.25,6.51,0.24,13.05-0.4401,19.5599c-50.3099,1.91-101.0399,0.5901-150.59-8.95
		c-11.23-2.3099-22.41-4.9-33.37-8.27c-7.07-1.91-13.68-5.1699-20.71-7.16c5.59,4.0601,12.15,6.4701,18.43,9.26
		c19.55,7.9801,40.38,12.3201,61.27,15c41.5,5.4501,83.39,6.3,125.1899,6.6901c-0.63,147.28,0.0901,294.5599,0.3301,441.84
		c-0.0701,9.0801,0.1699,18.1599-0.0701,27.24c-17.36-0.1499-34.74,0.3901-52.08-0.45c-28.7-0.1201-57.47-0.99-85.9-5.22
		c-30.64-3.72-60.75-12.4299-88.43-26.1602c-6.4-3.23-12.81-6.48-18.74-10.5198c-1.2-0.8301-2.37-1.6501-3.51-2.4902
		c0.68-1.3899,1.43-2.7998,1.33-4.3799c0.07-10.03-0.06-20.05-0.57-30.05c-1.99-21.6299-3.45-43.4099-6.71-64.8999
		c-0.72-19.01,0.08-38.02-0.27-57.03c0.07-10.99,0.55-21.97,0.48-32.95c1.04-10,0.42-20.1001,1.46-30.1101
		c1.65-28.45,5.05-56.74,8.74-84.99c1.23-6.62,2.1-13.3099,3.01-19.97c1.45-7.97,2.7-15.99,4.01-23.99
		c2.3-11.66,4.41-23.4,7.37-34.9c0.17-1.0699,0.35-2.13,0.54-3.16c0.48-1.3099,0.79-2.6699,1.08-4c0.45-1.96,1.23-4,0.66-5.98
		c-1.28-1.7999-3.11-3.14-4.21-5.02c0.93-4.22,3.25-8.01,4.6299-12.09c1.19-3.8199,3.8701-7.26,3.6201-11.42
		c-0.25-0.0099-0.73-0.0499-0.97-0.0699c-0.01-7.25-1.97-14.35-3.11-21.47c2.61-3.1,5.71-5.85,7.86-9.3
		c2.31-6.48,4.73-12.9199,6.69-19.51C995.24,1801.89,996.29,1798.63,996.87,1795.28z"/>
	<path fill="#E5BC84" stroke="#E5BC84" stroke-width="0.5" d="M1438.98,1808.04c3.65-0.36,7.4401-1.89,11.0601-0.66
		c-16.7001,5.15-33.24,11.03-49.0701,18.49c-7.86,4-16.08,7.55-22.86,13.3199c-7.75,5.8301-13.76,13.51-20.02,20.8201
		c1.73-5.89,5.76-10.73,9.36-15.5701C1385.3199,1823.39,1412.27,1812.42,1438.98,1808.04z"/>
	<path fill="#89141A" stroke="#89141A" stroke-width="0.5" d="M1306.27,1815.3101c10.1899-1.0901,20.2999-3.1801,30.58-3.2001
		c2.1901,4.13,5.02,8.03,9.03,10.58c-0.11,0.38-0.34,1.13-0.46,1.51c-1.75,3.5601-4.04,6.9501-5.04,10.8301
		c-0.05,6.9299,0.11,14.15,3.14,20.5499c2.0499,4.2201,5.2999,8.5901,10.22,9.51c-0.51,8.48,5.97,14.5901,9.62,21.55
		c1.4501,2.51,2.08,5.61,4.29,7.65c3.41,2.14,7.6699,1.2899,11.38,0.49c2.61,6.14,5.7,13.33,12.71,15.39
		c6.38,1.1,13.16,1.2,19.3-1.15c7.9099-2.92,16.01-5.26,23.97-8.0601c0.98,3.76,3.52,6.75,6.46,9.2001
		c0.26,5.4099,2.13,10.58,2.72,15.97c7.8,58.71,14.27,117.67,16.4901,176.88c1.33,40.6599,0.5099,81.3799-2.04,121.98
		c-0.09,4.3701-1.26,8.8-0.14,13.1499c2.38,11.8901,4.64,23.8,6.99,35.6902c0.23,1.3899,0.37,2.8198,0.4301,4.29
		c-3.2301,1.6399-6.65,2.8699-9.9,4.46c-18.51,7.28-37.7001,12.6499-56.5701,18.8899c-8.4299,2.6401-16.83,5.3601-25.37,7.6101
		c-10.38,3.5798-21.26,5.4199-32.0599,7.1799c-11.75,0.78-23.3201,3.01-34.9501,4.6699c-12.6899,0.99-25.33,2.5901-38.0499,2.9001
		c-8.96,0.9399-17.98,0.1299-26.9301,1.1499c-10,0.5-20.0299,0.04-30.0299,0.24c-1.6801-0.03-3.3401-0.03-4.9801,0
		c0.24-9.0801,0-18.1599,0.0701-27.24c-0.24-147.28-0.9601-294.5599-0.3301-441.84c-41.7999-0.39-83.6899-1.24-125.1899-6.6901
		c-20.89-2.6799-41.72-7.0199-61.27-15c-6.28-2.7899-12.84-5.2-18.43-9.26c7.03,1.9901,13.64,5.25,20.71,7.16
		c10.96,3.37,22.14,5.9601,33.37,8.27c49.55,9.54,100.28,10.86,150.59,8.95c0.6801-6.5099,0.1901-13.0499,0.4401-19.5599
		c0.13-3.29-0.3101-6.55-1.17-9.7c0.66-0.0701,1.96-0.1901,2.61-0.26c16.16-0.6801,32.42,0.1,48.54-1.4801
		C1273.48,1818.17,1289.84,1816.38,1306.27,1815.3101z"/>
	<path opacity="0.73" fill="#969696" stroke="#969696" stroke-width="0.5" enable-background="new    " d="M1498.1899,1826.3199
		C1498.77,1826.8,1498.77,1826.8,1498.1899,1826.3199z"/>
	<path opacity="0.78" fill="#A1A1A1" stroke="#A1A1A1" stroke-width="0.5" enable-background="new    " d="M1499.1899,1828.2
		C1499.71,1828.73,1499.71,1828.73,1499.1899,1828.2z"/>
	<path opacity="0.93" fill="#BEB5B5" stroke="#BEB5B5" stroke-width="0.5" enable-background="new    " d="M1498.7,1829.5601
		c3.4301,0.6399,3.9301,4.23,4.38,7.1C1501.33,1834.47,1499.91,1832.0601,1498.7,1829.5601z"/>
	<path opacity="0.76" fill="#95868B" stroke="#95868B" stroke-width="0.5" enable-background="new    " d="M1503.38,1837.33
		l0.1,0.2301l0.11,0.24l-0.11-0.2301L1503.38,1837.33z"/>
	<path fill="#B9B9B9" stroke="#B9B9B9" stroke-width="0.5" d="M1530.24,1839.38c6.28-2.25,13.16,4.11,11.5701,10.54
		c-1.1201,6.36-9.89,9.5399-14.6001,4.9399C1521.84,1850.66,1523.75,1841.28,1530.24,1839.38z"/>
	<path opacity="0.91" fill="#BC9E98" stroke="#BC9E98" stroke-width="0.5" enable-background="new    " d="M1505.09,1840.98
		c1.6,0.88,2.1801,2.65,1.9401,4.4501C1505.38,1844.51,1504.74,1842.74,1505.09,1840.98z"/>
	<path opacity="0.91" fill="#AC838F" stroke="#AC838F" stroke-width="0.5" enable-background="new    " d="M1507.34,1846.1801
		c0.0701,0.1599,0.2001,0.5,0.27,0.6699C1507.54,1846.6801,1507.41,1846.34,1507.34,1846.1801z"/>
	<path fill="#E5BC84" stroke="#E5BC84" stroke-width="0.5" d="M1433.65,1854.65c5.1799-2.3301,10.0699-5.42,15.63-6.8101
		c-1.67,2.65-4.75,3.7101-7.28,5.3201c-6.1,3.6899-12.64,6.5499-18.95,9.84c-7.75,3.8101-15.42,7.87-23.6901,10.4399
		c-7.85,2.63-14.25,8.13-19.25,14.5901c0.67-6.2001,5.65-11.4,11.27-13.6901C1405.54,1867.92,1419.47,1861.03,1433.65,1854.65z"/>
	<path opacity="0.96" fill="#B88B96" stroke="#B88B96" stroke-width="0.5" enable-background="new    " d="M1507.9301,1847.64
		c0.2799,0.62,0.83,1.86,1.11,2.49C1508.76,1849.5,1508.21,1848.26,1507.9301,1847.64z"/>
	<path opacity="0.29" fill="#3D3D3D" stroke="#3D3D3D" stroke-width="0.5" enable-background="new    " d="M1529.33,1897.27
		C1529.84,1897.8101,1529.84,1897.8101,1529.33,1897.27z"/>
	<path fill="#453F3F" stroke="#453F3F" stroke-width="0.5" d="M961.93,2282.8701c5.93,4.0398,12.34,7.2898,18.74,10.5198
		c27.68,13.7302,57.79,22.4402,88.43,26.1602c28.4301,4.23,57.2001,5.0999,85.9,5.22c17.34,0.8401,34.72,0.3,52.08,0.45
		c1.64-0.03,3.3-0.03,4.9801,0c-0.1201,12.5801-0.1101,25.1699,0,37.76c0.0199,2.03-0.3401,4.0701-0.7001,6.1101l-1.36-0.05
		c-0.5-0.02-1.5-0.05-1.99-0.0601c0.45,12.0901-1.1801,24.0901-2.16,36.1301c-5.66,63.3098-11.3099,126.6199-16.96,189.9299
		c-2,13.6299,1.2999,27.25,2.0499,40.8699c1.7001,11.3201,0.55,22.75,0.3201,34.1301c-3.77,116.3301-7.48,232.6599-11.28,348.98
		c-8.46,5.8999-16.88,11.8401-25.35,17.72c-0.97,0.5701-1.63,1.51-2.38,2.3501c-8.2,6.27-17.04,11.6899-25.46,17.6899
		c-2.23,1.3401-4.42,3.8499-7.28,2.8599c-14.61-3.3999-29.0601-7.47-43.6801-10.7798l0.2301,1.0198
		c-0.1901-0.5098-0.5701-1.5398-0.76-2.0498c-9.7001-3.1702-19.54-5.8501-29.29-8.8301c0.65-12,1.33-24,1.99-35.99
		c-3.99-2.72-8.05-5.3301-12.01-8.0601c-9.5-98.2-21.53-196.1399-34.66-293.9099c-2.37-18.03-4.98-36.02-7.23-54.05
		c0.97-18.3601,3.01-36.6799,3.73-55.03c-9.13-64.3201-18.37-128.6299-27.54-192.95c-1.68-13.3-4.39-26.5-4.93-39.9199
		C963.8,2333.7,962.69,2308.29,961.93,2282.8701z"/>
	<path fill="#3D3532" stroke="#3D3532" stroke-width="0.5" d="M1399.45,2301.47c18.87-6.24,38.0601-11.6099,56.5701-18.8899
		c-0.66,26.1599-1.9,52.2998-3.5,78.4199c-0.4301,10.5701-2.53,20.96-3.87,31.4399c-9.37,65.47-18.6801,130.96-28.0801,196.4302
		c-1.09,5.6399,0.15,11.3499,0.38,17.0298c0.89,14.04,2.4,28.0801,2.88,42.1301c-15.7799,115.4199-30.64,230.99-41.83,346.96
		c-3.99,2.6899-8.03,5.3201-12.01,8.04c0.6801,11.98,1.35,23.98,2,35.97c-9.42,2.96-19.03,5.3501-28.3199,8.6699
		c-7.74,2.8101-15.78,4.72-23.63,7.1802c-7.03,1.9299-13.9401,4.3298-21.01,6.0298c-2.53-0.8298-4.48-2.7798-6.67-4.1699
		c-9.4299-6.48-18.6899-13.21-28.24-19.48c-8.83-5.8999-17.4301-12.1199-26.13-18.2c-3.95-123.6599-8-247.3201-11.9299-370.98
		c0.95-14.02,2.6499-28,3.8199-42c0.11-3.3601-0.4401-6.6799-0.6801-9.99c-6.09-68.6802-12.33-137.3601-18.35-206.04
		c0.39-6.98-0.27-14,0.51-20.9299c0.36-2.04,0.72-4.0801,0.7001-6.1101c-0.1101-12.5901-0.1201-25.1799,0-37.76
		c10-0.2,20.0299,0.26,30.0299-0.24c8.9501-1.02,17.9701-0.21,26.9301-1.1499c12.72-0.3101,25.36-1.9102,38.0499-2.9001
		c11.63-1.6599,23.2001-3.8899,34.9501-4.6699c10.7999-1.76,21.6799-3.6001,32.0599-7.1799
		C1382.62,2306.8301,1391.02,2304.1101,1399.45,2301.47z"/>
	<path opacity="0.83" fill="#547F81" stroke="#547F81" stroke-width="0.5" enable-background="new    " d="M1210,2369.04l1.36,0.05
		c-0.78,6.9299-0.12,13.95-0.51,20.9299C1209.55,2383.0901,1210.1,2376.03,1210,2369.04z"/>
	<path fill="#E5BC84" stroke="#E5BC84" stroke-width="0.5" d="M1264.12,3037.23c9.55,6.27,18.8101,13,28.24,19.48
		c2.1901,1.3901,4.14,3.3401,6.67,4.1699c7.0699-1.7,13.98-4.0999,21.01-6.0298c7.85-2.4602,15.89-4.3701,23.63-7.1802
		c-1.3501,5.1301-3.3301,10.0901-4.5801,15.25c-0.5699,10.8801-0.4299,21.8-0.4299,32.71c-0.87-0.5898-1.75-1.1599-2.5901-1.6499
		c-0.5199-0.3101-1.5699-0.9199-2.1-1.22c-0.46-0.25-1.4-0.74-1.87-0.98c-0.84-1.4299-2.39-2.47-4.0399-1.8901l-1.02,0.1401
		c-0.7201-1.23-1.76-1.6201-3.1001-1.1599c-6.5599-1.1301-13.2799-0.8701-19.84,0.0798c-1.28-0.47-2.36-0.2-3.24,0.8301
		c-3.12,0.72-6.1,1.8899-9.09,3.01c-1.51,0.22-2.92,0.8999-3.7001,2.28c-0.47,0.22-1.4199,0.6599-1.8999,0.8699
		c-1.4701-0.2-2.29,0.46-2.4401,1.96c-1.26,1.05-2.51,2.1101-3.6899,3.28c-1.9501-0.9099-3.4301,0.9202-3.05,2.8101
		c-0.23,0.46-0.6899,1.3899-0.92,1.8601c-1.2699,0.25-1.98,1.0498-2.13,2.3899c-0.3199,0.8501-0.61,1.73-0.86,2.6699
		c-1.3999,0.0801-2.0299,0.9001-1.9099,2.4602c-0.0701,0.3699-0.2201,1.1099-0.29,1.48c-0.47,0.3198-1.41,0.9399-1.88,1.25
		c-0.4399,0.22-1.3199,0.6599-1.76,0.8699c-1.33,0.0601-2.13,0.74-2.41,2.05l-0.71,0.29c0.03-4.3801,1.51-8.55,2.15-12.8301
		c2.39-13.99,4-28.3401,2.24-42.5c-0.46-5.97-0.95-11.9299-1.39-17.8899C1266.71,3042.9099,1267.58,3038.8601,1264.12,3037.23z"/>
	<path fill="#F1D4A8" stroke="#F1D4A8" stroke-width="0.5" d="M1126.79,3056.78c8.4199-6,17.26-11.4199,25.46-17.6899
		c-0.47,11.2998-1.6801,22.5798-2.53,33.8699c-0.1,14.4199,1.7001,28.8301,4.9401,42.8801c-0.4401-0.1802-1.3201-0.53-1.76-0.7102
		l-0.61-0.45c-0.14-0.3-0.42-0.8899-0.5601-1.1899c0.23-1.6101-0.37-2.48-1.7999-2.5801c-0.29-0.9199-0.5901-1.7898-0.88-2.6099
		c-0.17-1.3-0.8401-2.1501-1.99-2.55c-0.9801-1.26-1.9601-2.49-2.92-3.6899c-0.02-1.5901-0.79-2.29-2.33-2.1001
		c-2.8101-2.1299-5.55-4.3699-8.6801-5.98c-0.53-0.3-1.59-0.8899-2.11-1.1799c-9.97-4.4102-21.22-5.6899-31.9401-3.9102
		c-1.2999-0.4199-2.37-0.0898-3.21,0.99c-2.35,0.8301-4.65,1.78-6.9,2.8401c-0.52,0.3101-1.5699,0.9299-2.09,1.24
		c-1.1801,0.72-2.3199,1.5-3.4401,2.3501c-1.1,0.49-2.1899,1.01-3.2699,1.55c0.4099-9.9302,0.13-19.8701-0.02-29.79
		c0.53-6.4102-2.72-12.1301-4.09-18.1902l-0.2301-1.0198c14.62,3.3098,29.0701,7.3799,43.6801,10.7798
		C1122.37,3060.6299,1124.5601,3058.1201,1126.79,3056.78z"/>
	<path fill="#453F3F" stroke="#453F3F" stroke-width="0.5" d="M1099.08,3088.8899c10.7201-1.7798,21.9701-0.5,31.9401,3.9102
		c0.52,0.29,1.58,0.8799,2.11,1.1799c3.13,1.6101,5.87,3.8501,8.6801,5.98c0.2799,1.1899,1.0499,1.8901,2.33,2.1001
		c0.96,1.2,1.9399,2.4299,2.92,3.6899c-0.27,1.53,0.3999,2.3799,1.99,2.55c0.2899,0.8201,0.59,1.6899,0.88,2.6099
		c-0.05,1.25,0.5499,2.1101,1.7999,2.5801c0.14,0.3,0.42,0.8899,0.5601,1.1899l0.61,0.45c9.22,5.7002,17.2,13.78,21.5399,23.8201
		c6.5801,19.9399,8.5601,41.1702,8.1901,62.0901c-0.23,8.3899,0.29,17.27-3.9401,24.8799c1.03,1.9102,0.4901,4.0901,0.5701,6.2002
		c0.78,11.46,3.52,22.6899,7.3099,33.5198c5.1101,13.1902,8.2001,27.2002,9.16,41.3401c0.09,11.3801,1.85,22.77,0.49,34.1699
		c-1.2,8.0901-2.33,16.4302-6.48,23.6501c-1.02,3.3201-4.64,4.24-7.4399,5.5898c-16.03,6.4502-33.2001,9.8201-50.41,10.9402
		c-30.23,1.74-60.61-3.3201-89.27-12.8201c-5.83-2.1101-12.41-3.5801-16.53-8.5801c-4.42-5.54-7.33-12.1599-9.3799-18.8899
		c-3.19-11.02-5.34-22.6501-3.53-34.1001c1.6-5.8699,1.28-12.03,2.67-17.9199c2.71-12.9299,5.95-25.74,9.53-38.45
		c2.4-7.99,3.41-16.28,4.23-24.53c-0.24-12.4102,0.71-25.4199,6.59-36.5801c1.8401-5.3599,2.55-11.01,4.1801-16.3899
		c1.78-3.4202,1.78-7.3301,2.33-11.02c2.2201-12.3101,2.98-25.3601,9.91-36.1799c1.7-4.7302,5.49-8.29,10.15-10.05
		c4.98-1.6301,7.48-6.6001,10.47-10.47c1.8101-2.6001,4.52-4.3601,6.41-6.8601c1.37-0.55,2.75-1.1199,3.7899-2.1799
		c1.1201-0.8501,2.26-1.6301,3.4401-2.3501c0.52-0.3101,1.5699-0.9299,2.09-1.24c2.25-1.0601,4.55-2.01,6.9-2.8401
		C1097.27,3090.48,1098.34,3090.1599,1099.08,3088.8899 M1042.7,3290.7c-2.6899,0.95-5.74,1.3301-7.9399,3.3
		c4.88,0.03,9.55-1.55,14.36-2.1799c12.83-2.3601,25.8-3.76,38.8-4.73c26.26-1.27,52.9199-0.3801,78.45,6.4099
		c5.35,1.0801,10.26,3.73,15.6901,4.52c-3.26-4.1699-7.7201-7.1499-12.0701-10.04c-13.97-8.5701-30.79-11.53-47-11.3599
		C1095.61,3276.1599,1068.65,3282.49,1042.7,3290.7z"/>
	<path fill="#493D39" stroke="#493D39" stroke-width="0.5" d="M1304.1,3088.95c6.5601-0.95,13.28-1.21,19.84-0.0798
		c0.66,1.2,1.6901,1.5898,3.1001,1.1599l1.02-0.1401c0.25,1.9001,2.5099,1.9502,4.0399,1.8901c0.47,0.24,1.41,0.73,1.87,0.98
		c0.53,0.3,1.5801,0.9099,2.1,1.22c0.8401,0.49,1.7201,1.0601,2.5901,1.6499c4.95,3.1201,9.48,7.0701,12.75,11.9802
		c1.64,2.5398,3.62,4.8999,5.95,6.8799c3.9401,1.8301,8.39,3.52,10.9,7.3101c2.8099,5.6399,6.3199,11.05,7.87,17.24
		c2.36,10.2,3.7,20.6199,5.28,30.97c3.35,7.3401,3.0299,15.9299,7.13,23.01c2.6699,6.3201,3.8099,13.2,4.5399,20
		c0.77,6.3-0.38,12.75,1.0601,19.01c0.8199,12.28,5.35,23.8699,8.1,35.79c2.4401,10.6499,5.67,21.23,6.34,32.21
		c0.3,4.04,1.8501,7.8899,1.79,12c0.62,11.49-1.92,22.9199-5.66,33.73c-3.14,7.6899-7.11,16.3799-15.4299,19.5601
		c-19.42,7.3398-39.75,12.3398-60.37,14.79c-29.37,3.5198-59.9,1.4299-87.5901-9.4702c-2.99-1.4299-6.9299-2.3098-8.0499-5.8298
		c-2.34-4.3401-4.0601-8.95-4.8301-13.8101c-2.8199-12.1201-2.49-24.6899-1.2699-36.97c-0.25-11.22,1.64-22.3701,4.37-33.2
		c2.47-10.1001,6.97-19.5601,9.24-29.72c1.63-7.5801,3.26-15.3101,2.86-23.0801c0.17-0.52,0.5-1.5801,0.67-2.1001
		c-1.9401-4.05-3.4801-8.3699-3.5601-12.8799c-0.58-13.3701-0.83-26.8201,0.77-40.1201c1.4-12.1099,3.37-24.29,7.73-35.71
		c3.71-6.8599,8.6-13.27,14.87-17.9099l0.71-0.29c1.49,0.1099,2.29-0.5701,2.41-2.05c0.4401-0.21,1.3201-0.6499,1.76-0.8699
		c0.47-0.3101,1.41-0.9302,1.88-1.25c0.0699-0.3701,0.22-1.1101,0.29-1.48c1.3199-0.3201,1.95-1.1401,1.9099-2.4602
		c0.25-0.9399,0.54-1.8198,0.86-2.6699c1.5-0.1001,2.2101-0.8999,2.13-2.3899c0.2301-0.4702,0.6901-1.4001,0.92-1.8601
		c1.4-0.47,2.4-1.55,3.05-2.8101c1.1799-1.1699,2.4299-2.23,3.6899-3.28c1.3301-0.0398,2.14-0.6899,2.4401-1.96
		c0.48-0.21,1.4299-0.6499,1.8999-0.8699c1.64,0.48,3.9601-0.1802,3.7001-2.28c2.99-1.1201,5.97-2.29,9.09-3.01
		C1302.22,3090.46,1303.3,3090.1899,1304.1,3088.95 M1296.3,3276.49c-19.9501,0.75-41.53,5.97-55.29,21.4299
		c3-0.22,5.78-1.3999,8.6-2.3599c15.01-4.79,30.66-7.1602,46.33-8.3601c26.0801-1.5798,52.3301-0.02,78.05,4.5901
		c4.8,0.51,9.4301,2.3699,14.3101,2.1299c-2.7201-2.0898-6.2201-2.5498-9.37-3.6299
		C1352.26,3281.8201,1324.41,3275.79,1296.3,3276.49z"/>
	<path opacity="0.78" fill="#8D7D66" stroke="#8D7D66" stroke-width="0.5" enable-background="new    " d="M1095.87,3089.8799
		c0.84-1.0798,1.91-1.4099,3.21-0.99C1098.34,3090.1599,1097.27,3090.48,1095.87,3089.8799z"/>
	<path opacity="0.77" fill="#887052" stroke="#887052" stroke-width="0.5" enable-background="new    " d="M1300.86,3089.78
		c0.88-1.03,1.96-1.3,3.24-0.8301C1303.3,3090.1899,1302.22,3090.46,1300.86,3089.78z"/>
	<path opacity="0.78" fill="#887052" stroke="#887052" stroke-width="0.5" enable-background="new    " d="M1323.9399,3088.8701
		c1.3401-0.4602,2.38-0.0701,3.1001,1.1599C1325.63,3090.46,1324.6,3090.0701,1323.9399,3088.8701z"/>
	<path opacity="0.82" fill="#9F835E" stroke="#9F835E" stroke-width="0.5" enable-background="new    " d="M1328.0601,3089.8899
		c1.6499-0.5798,3.2,0.4602,4.0399,1.8901C1330.5699,3091.8401,1328.3101,3091.79,1328.0601,3089.8899z"/>
	<path opacity="0.79" fill="#837460" stroke="#837460" stroke-width="0.5" enable-background="new    " d="M1086.88,3093.96
		c0.52-0.3101,1.5699-0.9299,2.09-1.24C1088.45,3093.03,1087.4,3093.6499,1086.88,3093.96z"/>
	<path opacity="0.78" fill="#877762" stroke="#877762" stroke-width="0.5" enable-background="new    " d="M1131.02,3092.8
		c0.52,0.29,1.58,0.8799,2.11,1.1799C1132.6,3093.6799,1131.54,3093.0901,1131.02,3092.8z"/>
	<path opacity="0.82" fill="#7A654D" stroke="#7A654D" stroke-width="0.5" enable-background="new    " d="M1288.0699,3095.0701
		c0.78-1.3801,2.1901-2.0601,3.7001-2.28C1292.03,3094.8899,1289.71,3095.55,1288.0699,3095.0701z"/>
	<path opacity="0.79" fill="#7F684E" stroke="#7F684E" stroke-width="0.5" enable-background="new    " d="M1333.97,3092.76
		c0.53,0.3,1.5801,0.9099,2.1,1.22C1335.55,3093.6699,1334.5,3093.0601,1333.97,3092.76z"/>
	<path opacity="0.86" fill="#B8976B" stroke="#B8976B" stroke-width="0.5" enable-background="new    " d="M1283.73,3097.8999
		c0.15-1.5,0.97-2.1599,2.4401-1.96C1285.87,3097.21,1285.0601,3097.8601,1283.73,3097.8999z"/>
	<path opacity="0.88" fill="#CCB38F" stroke="#CCB38F" stroke-width="0.5" enable-background="new    " d="M1141.8101,3099.96
		c1.5399-0.1899,2.3099,0.51,2.33,2.1001C1142.86,3101.8501,1142.09,3101.1499,1141.8101,3099.96z"/>
	<path opacity="0.89" fill="#C4A172" stroke="#C4A172" stroke-width="0.5" enable-background="new    " d="M1276.99,3103.99
		c-0.38-1.8899,1.1-3.72,3.05-2.8101C1279.39,3102.4399,1278.39,3103.52,1276.99,3103.99z"/>
	<path opacity="0.83" fill="#7A6D5C" stroke="#7A6D5C" stroke-width="0.5" enable-background="new    " d="M1147.0601,3105.75
		c1.1499,0.3999,1.8199,1.25,1.99,2.55C1147.46,3108.1299,1146.79,3107.28,1147.0601,3105.75z"/>
	<path opacity="0.83" fill="#77624B" stroke="#77624B" stroke-width="0.5" enable-background="new    " d="M1273.9399,3108.24
		c0.15-1.3401,0.8601-2.1399,2.13-2.3899C1276.15,3107.3401,1275.4399,3108.1399,1273.9399,3108.24z"/>
	<path opacity="0.83" fill="#857562" stroke="#857562" stroke-width="0.5" enable-background="new    " d="M1149.9301,3110.9099
		c1.4299,0.1001,2.0299,0.97,1.7999,2.5801C1150.48,3113.02,1149.88,3112.1599,1149.9301,3110.9099z"/>
	<path opacity="0.83" fill="#816A50" stroke="#816A50" stroke-width="0.5" enable-background="new    " d="M1271.17,3113.3701
		c-0.12-1.5601,0.51-2.3801,1.9099-2.4602C1273.12,3112.23,1272.49,3113.05,1271.17,3113.3701z"/>
	<path opacity="0.79" fill="#8D7455" stroke="#8D7455" stroke-width="0.5" enable-background="new    " d="M1269,3116.1001
		c0.47-0.3101,1.41-0.9302,1.88-1.25C1270.41,3115.1699,1269.47,3115.79,1269,3116.1001z"/>
	<path opacity="0.83" fill="#705D48" stroke="#705D48" stroke-width="0.5" enable-background="new    " d="M1264.83,3119.02
		c0.28-1.3101,1.0801-1.99,2.41-2.05C1267.12,3118.45,1266.3199,3119.1299,1264.83,3119.02z"/>
	<path fill="#63534D" stroke="#63534D" stroke-width="0.5" d="M1296.3,3276.49c28.11-0.7,55.96,5.3301,82.63,13.8
		c3.1499,1.0801,6.6499,1.54,9.37,3.6299c-4.88,0.24-9.51-1.6199-14.3101-2.1299c-25.72-4.6101-51.97-6.1699-78.05-4.5901
		c-15.6699,1.2-31.3199,3.5701-46.33,8.3601c-2.8199,0.96-5.6,2.1399-8.6,2.3599C1254.77,3282.46,1276.35,3277.24,1296.3,3276.49z"
		/>
	<path fill="#5D5555" stroke="#5D5555" stroke-width="0.5" d="M1042.7,3290.7c25.9501-8.21,52.91-14.54,80.29-14.0798
		c16.21-0.1702,33.03,2.7898,47,11.3599c4.35,2.8901,8.8101,5.8701,12.0701,10.04c-5.4301-0.79-10.3401-3.4399-15.6901-4.52
		c-25.53-6.79-52.1899-7.6799-78.45-6.4099c-13,0.97-25.9701,2.3699-38.8,4.73c-4.8099,0.6299-9.48,2.21-14.36,2.1799
		C1036.96,3292.03,1040.01,3291.6499,1042.7,3290.7z"/>
</g>
</svg>
